<svg width="22" height="12" viewBox="0 0 22 12" fill="none" xmlns="http://www.w3.org/2000/svg">
<path d="M11.917 7.00549C11.6623 8.48555 10.8619 9.81634 9.67392 10.7351C8.48593 11.6539 6.99666 12.094 5.50009 11.9684C4.00352 11.8428 2.60841 11.1607 1.59016 10.0568C0.57191 8.95287 0.00452288 7.50731 2.5002e-06 6.00549C-0.00137098 4.5001 0.563193 3.04919 1.58168 1.94064C2.60017 0.832093 3.99816 0.146906 5.49828 0.0210254C6.9984 -0.104855 8.49103 0.33777 9.68002 1.26108C10.869 2.18439 11.6675 3.52092 11.917 5.00549H22V7.00549H20V11.0055H18V7.00549H16V11.0055H14V7.00549H11.917ZM6 10.0055C7.06087 10.0055 8.07828 9.58406 8.82843 8.83391C9.57858 8.08377 10 7.06635 10 6.00549C10 4.94462 9.57858 3.9272 8.82843 3.17706C8.07828 2.42691 7.06087 2.00549 6 2.00549C4.93914 2.00549 3.92172 2.42691 3.17158 3.17706C2.42143 3.9272 2 4.94462 2 6.00549C2 7.06635 2.42143 8.08377 3.17158 8.83391C3.92172 9.58406 4.93914 10.0055 6 10.0055V10.0055Z" fill="#A9C96B"/>
</svg>
